<svg aria-hidden="true" xmlns="http://www.w3.org/2000/svg" xmlns:xlink="http://www.w3.org/1999/xlink">

<symbol viewBox="0 0 12 9" id="arrow" xmlns="http://www.w3.org/2000/svg">
<path fill-rule="evenodd" clip-rule="evenodd" d="M6.70567 0.348009C6.86305 0.190638 7.11816 0.190638 7.27554 0.348009L11.0367 4.10912C11.1123 4.18467 11.1547 4.28718 11.1547 4.39405C11.1547 4.50093 11.1123 4.60344 11.0367 4.67904L7.27554 8.44019C7.11816 8.59757 6.86305 8.59757 6.70567 8.44019C6.54829 8.28281 6.54829 8.02765 6.70567 7.87027L9.77885 4.79703L1.08023 4.79703C0.857668 4.79703 0.677246 4.61661 0.677246 4.39405C0.677246 4.1715 0.857668 3.99107 1.08023 3.99107L9.77885 3.99107L6.70567 0.917909C6.54829 0.760537 6.54829 0.505387 6.70567 0.348009Z"/>
</symbol>

<symbol viewBox="0 0 37 45" id="guarance" xmlns="http://www.w3.org/2000/svg">
<path fill-rule="evenodd" clip-rule="evenodd" d="M8.73448 28.8596C9.12496 28.9978 9.32946 29.4264 9.19124 29.8169L7.53925 34.484C7.40104 34.8745 6.97245 35.079 6.58198 34.9408C6.19151 34.8026 5.98701 34.374 6.12522 33.9835L7.77721 29.3164C7.91542 28.9259 8.34401 28.7214 8.73448 28.8596Z"/>
<path fill-rule="evenodd" clip-rule="evenodd" d="M7.75453 31.7948C8.14413 31.9355 8.34591 32.3653 8.20523 32.7549L5.6471 39.8392L10.836 37.8715C10.8361 37.8715 10.836 37.8715 10.836 37.8715C11.4525 37.6377 12.1069 37.8696 12.4389 38.4386L15.2362 43.2356L17.7348 36.1767C17.873 35.7862 18.3016 35.5817 18.692 35.7199C19.0825 35.8582 19.287 36.2867 19.1488 36.6772L16.523 44.0955C16.3683 44.5325 16.0352 44.901 15.5886 45.0377C15.3615 45.1073 15.0992 45.1159 14.8423 45.0208C14.5809 44.9239 14.376 44.7382 14.2411 44.5069L11.2219 39.3294L5.61785 41.4545C5.61784 41.4546 5.61786 41.4545 5.61785 41.4545C5.36752 41.5495 5.09134 41.565 4.82723 41.4758C4.56766 41.3882 4.36914 41.2164 4.23637 41.0195C3.97524 40.6322 3.94815 40.1362 4.10287 39.6992L4.10443 39.6948L6.79439 32.2455C6.93507 31.8559 7.36494 31.6541 7.75453 31.7948ZM5.08596 40.052C5.08592 40.052 5.086 40.052 5.08596 40.052Z"/>
<path fill-rule="evenodd" clip-rule="evenodd" d="M28.3298 29.0432C28.7203 28.905 29.1489 29.1095 29.2871 29.5L32.8967 39.6982C32.8967 39.6982 32.8967 39.6982 32.8967 39.6983C33.0514 40.1353 33.0243 40.6312 32.7632 41.0185C32.6304 41.2154 32.4319 41.3872 32.1724 41.4748C31.9082 41.5639 31.6321 41.5485 31.3818 41.4535C31.3818 41.4535 31.3817 41.4535 31.3817 41.4535L25.7777 39.3284L22.7585 44.5059L22.7585 44.5059C22.6236 44.7372 22.4187 44.9229 22.1573 45.0197C21.9004 45.1149 21.6381 45.1062 21.411 45.0367C20.9644 44.9 20.6313 44.5315 20.4766 44.0946L20.4766 44.0945L17.0744 34.4829C16.9362 34.0924 17.1407 33.6638 17.5312 33.5256C17.9217 33.3874 18.3503 33.5919 18.4885 33.9824L21.7634 43.2346L24.5607 38.4377L24.5607 38.4376C24.8926 37.8686 25.5469 37.6366 26.1634 37.8704C26.1634 37.8704 26.1635 37.8705 26.1636 37.8705L31.3555 39.8393L27.873 30.0005C27.7348 29.61 27.9393 29.1814 28.3298 29.0432ZM31.492 40.2433C31.4919 40.2433 31.4919 40.2419 31.4922 40.2393C31.4923 40.242 31.4922 40.2433 31.492 40.2433ZM21.9114 43.6344C21.9113 43.6345 21.9103 43.6336 21.9087 43.6315C21.9106 43.6332 21.9114 43.6343 21.9114 43.6344Z"/>
<path fill-rule="evenodd" clip-rule="evenodd" d="M18.5 5.89062C12.1185 5.89062 6.94531 11.0638 6.94531 17.4453C6.94531 23.8268 12.1185 29 18.5 29C24.8815 29 30.0547 23.8268 30.0547 17.4453C30.0547 11.0638 24.8815 5.89062 18.5 5.89062ZM5.44531 17.4453C5.44531 10.2354 11.2901 4.39062 18.5 4.39062C25.7099 4.39062 31.5547 10.2354 31.5547 17.4453C31.5547 24.6552 25.7099 30.5 18.5 30.5C11.2901 30.5 5.44531 24.6552 5.44531 17.4453Z"/>
<path fill-rule="evenodd" clip-rule="evenodd" d="M19.1072 1.59252C18.7397 1.34676 18.2604 1.34676 17.8929 1.59254L15.538 3.16783C15.538 3.16784 15.538 3.16781 15.538 3.16783C15.0625 3.48594 14.4953 3.63771 13.9247 3.59975L11.0997 3.41166C11.0997 3.41166 11.0997 3.41167 11.0997 3.41166C10.6579 3.3823 10.242 3.62266 10.047 4.02012C10.047 4.02012 10.047 4.02012 10.047 4.02012L8.80024 6.5606C8.5473 7.076 8.13049 7.49265 7.61535 7.74552L5.0748 8.99229C4.67724 9.18737 4.43691 9.60319 4.46634 10.045L4.65443 12.8701C4.6924 13.4408 4.54051 14.008 4.22258 14.4833L2.64722 16.8383C2.64721 16.8384 2.64722 16.8383 2.64722 16.8383C2.40146 17.2058 2.40144 17.6851 2.6472 18.0526M2.6472 18.0526L4.22251 20.4075C4.22252 20.4075 4.22249 20.4075 4.22251 20.4075C4.54062 20.883 4.69239 21.4503 4.65443 22.0208L4.46635 24.8458C4.46634 24.8458 4.46635 24.8458 4.46635 24.8458C4.43698 25.2876 4.67734 25.7035 5.07481 25.8986L7.61528 27.1453C8.13068 27.3982 8.54733 27.815 8.8002 28.3302L10.047 30.8707C10.242 31.2683 10.6579 31.5086 11.0997 31.4792L13.9248 31.2911C14.4955 31.2531 15.0626 31.405 15.538 31.7229L17.893 33.2983C18.2605 33.5441 18.7398 33.5441 19.1072 33.2983L21.4622 31.723C21.4622 31.723 21.4622 31.723 21.4622 31.723C21.9377 31.4049 22.505 31.2531 23.0755 31.2911L25.9005 31.4792C26.3423 31.5086 26.7582 31.2682 26.9532 30.8707L28.2 28.3302C28.4529 27.8148 28.8697 27.3982 29.3849 27.1453L31.9254 25.8986C32.323 25.7035 32.5633 25.2877 32.5339 24.8458L32.3458 22.0208C32.3078 21.4501 32.4597 20.8829 32.7776 20.4075L34.353 18.0525C34.5988 17.6851 34.5988 17.2057 34.353 16.8383L32.7777 14.4833C32.7777 14.4833 32.7777 14.4833 32.7777 14.4833C32.4596 14.0078 32.3078 13.4406 32.3458 12.87L32.5339 10.045C32.5632 9.60319 32.3229 9.18735 31.9254 8.99228C31.9134 8.98639 31.9015 8.98018 31.8899 8.97365L28.634 7.15369C28.5007 7.07915 28.3933 6.96567 28.3262 6.82843L26.9532 4.02009C26.9532 4.01996 26.9533 4.02023 26.9532 4.02009C26.7581 3.62278 26.3422 3.38223 25.9006 3.41166L23.0755 3.59975C22.5048 3.63772 21.9376 3.48583 21.4622 3.1679L19.1072 1.59252C19.1072 1.59252 19.1072 1.59253 19.1072 1.59252M17.059 0.34574C17.9311 -0.237643 19.069 -0.237643 19.9411 0.34574L22.2962 1.92108C22.2962 1.92109 22.2961 1.92107 22.2962 1.92108C22.4965 2.05506 22.7355 2.11905 22.9758 2.10306M22.9758 2.10306L25.8008 1.91498C25.8009 1.91498 25.8008 1.91498 25.8008 1.91498C26.8497 1.84511 27.8368 2.41568 28.2998 3.35932L28.3003 3.36029L29.5707 5.95884L32.6057 7.65537C33.5376 8.12239 34.0998 9.10307 34.0306 10.1446L33.8425 12.9696C33.8265 13.2101 33.8904 13.449 34.0244 13.6492L35.5998 16.0043C36.1832 16.8764 36.1832 18.0143 35.5998 18.8865L34.0244 21.2415C33.8904 21.4418 33.8265 21.6808 33.8425 21.9212L34.0305 24.7462C34.0305 24.7462 34.0305 24.7462 34.0305 24.7462C34.1004 25.795 33.5299 26.7821 32.5862 27.2452L30.0458 28.4918C29.8287 28.5984 29.6531 28.774 29.5466 28.9911L28.2998 31.5316C27.8368 32.4751 26.8497 33.0456 25.8009 32.9759L22.9759 32.7878C22.7355 32.7718 22.4966 32.8357 22.2964 32.9697L19.9413 34.5451C19.0691 35.1285 17.9312 35.1285 17.0591 34.5451L14.7041 32.9698C14.5037 32.8358 14.2647 32.7718 14.0244 32.7878L11.1994 32.9759C11.1994 32.9759 11.1994 32.9759 11.1994 32.9759C10.1505 33.0457 9.1634 32.4752 8.70037 31.5315L7.45369 28.9912C7.34708 28.774 7.17152 28.5984 6.95445 28.4919L4.41397 27.2451C3.47042 26.7821 2.8999 25.795 2.96965 24.7463L3.15774 21.9212C3.15774 21.9212 3.15774 21.9213 3.15774 21.9212C3.17373 21.6808 3.10979 21.4419 2.97583 21.2417L1.40043 18.8866C0.817051 18.0144 0.817039 16.8765 1.40042 16.0044L2.97576 13.6494C3.10976 13.449 3.17373 13.2101 3.15774 12.9697M3.15774 12.9697L2.96966 10.1447C2.96966 10.1447 2.96966 10.1447 2.96966 10.1447C2.89979 9.09584 3.47036 8.10872 4.414 7.64568L6.95438 6.399C6.9544 6.39899 6.95435 6.39902 6.95438 6.399C7.1715 6.2924 7.34713 6.11682 7.45365 5.89977C7.45365 5.89976 7.45365 5.89977 7.45365 5.89977L8.70038 3.35929C9.16344 2.41574 10.1505 1.84522 11.1993 1.91497L14.0243 2.10306C14.0243 2.10306 14.0243 2.10306 14.0243 2.10306C14.2647 2.11905 14.5037 2.05511 14.7039 1.92115L17.059 0.34574"/>
<path fill-rule="evenodd" clip-rule="evenodd" d="M23.1726 14.867C23.4661 15.1593 23.467 15.6342 23.1748 15.9277L18.4287 20.6933C18.1611 20.9619 17.7352 20.9886 17.4362 20.7556L14.3788 18.3728C14.0521 18.1182 13.9937 17.6469 14.2483 17.3202C14.5029 16.9935 14.9742 16.9351 15.3009 17.1897L17.8345 19.1642L22.1119 14.8692C22.4042 14.5757 22.8791 14.5747 23.1726 14.867Z"/>
</symbol>

<symbol viewBox="0 0 25 25" id="microphone" xmlns="http://www.w3.org/2000/svg">
<path d="M12.5 16C14.71 16 16.5 14.21 16.5 12V6.5C16.5 4.29 14.71 2.5 12.5 2.5C10.29 2.5 8.5 4.29 8.5 6.5V12C8.5 14.21 10.29 16 12.5 16Z" stroke-width="1.5" stroke-linecap="round" stroke-linejoin="round"/>
<path d="M4.8501 10.1499V11.8499C4.8501 16.0699 8.2801 19.4999 12.5001 19.4999C16.7201 19.4999 20.1501 16.0699 20.1501 11.8499V10.1499" stroke-width="1.5" stroke-linecap="round" stroke-linejoin="round"/>
<path d="M11.1099 6.93012C12.0099 6.60012 12.9899 6.60012 13.8899 6.93012" stroke-width="1.5" stroke-linecap="round" stroke-linejoin="round"/>
<path d="M11.7002 9.04982C12.2302 8.90982 12.7802 8.90982 13.3102 9.04982" stroke-width="1.5" stroke-linecap="round" stroke-linejoin="round"/>
<path d="M12.5 19.5V22.5" stroke-width="1.5" stroke-linecap="round" stroke-linejoin="round"/>
</symbol>

<symbol viewBox="0 0 55 51" id="pazle" xmlns="http://www.w3.org/2000/svg">
<path fill-rule="evenodd" clip-rule="evenodd" d="M13.5303 46.0448C13.7374 46.4035 14.1961 46.5264 14.5548 46.3193L21.2769 42.4383C22.1757 41.9194 22.2283 40.693 21.4639 40.0617L21.4639 40.0616C21.2925 39.9201 21.1436 39.7435 21.0286 39.5329C20.5838 38.7183 20.8428 37.6701 21.6142 37.1587C22.4945 36.5752 23.6683 36.8607 24.1877 37.7603C24.3023 37.9588 24.3744 38.1683 24.4081 38.3797C24.5704 39.4004 25.7073 39.8804 26.5572 39.3897L33.2792 35.5088C33.6379 35.3017 33.7608 34.843 33.5537 34.4843L29.6734 27.7633C29.1825 26.913 27.9574 26.7604 27.3064 27.5638L27.3064 27.5639C27.1716 27.7303 27.0042 27.8758 26.8055 27.9906C25.906 28.5099 24.7467 28.1704 24.276 27.2249C23.8635 26.3962 24.1636 25.3586 24.9564 24.8757C25.1614 24.7508 25.3788 24.6722 25.5981 24.6354M14.4543 44.6453L4.39517 27.2224L10.4676 23.7164C11.3176 23.2257 11.4703 22.0012 10.6675 21.3502C10.5013 21.2154 10.3559 21.0481 10.2413 20.8496C9.72194 19.9501 10.0615 18.7908 11.007 18.3202C11.8357 17.9078 12.8729 18.2076 13.3559 19.0001C13.4808 19.2049 13.5594 19.4223 13.5963 19.6416C13.7608 20.6192 14.8493 21.1866 15.748 20.6678L19.0449 18.7643C19.4036 18.5572 19.5265 18.0985 19.3194 17.7398C19.1123 17.3811 18.6536 17.2582 18.2949 17.4653L15.0644 19.3304C14.9923 18.9473 14.851 18.5709 14.6368 18.2195C13.7498 16.7642 11.8669 16.2169 10.3388 16.9772L10.3387 16.9773C8.61413 17.8356 7.99312 19.9557 8.94224 21.5996C9.13374 21.9313 9.37496 22.2183 9.65134 22.4557L2.99565 26.2983C2.63693 26.5054 2.51403 26.9641 2.72113 27.3228L13.5303 46.0448M14.4543 44.6453L20.4605 41.1776C20.1647 40.9237 19.9094 40.613 19.7122 40.2518L19.7121 40.2518C18.8954 38.7561 19.3627 36.8516 20.7854 35.9085C22.391 34.8441 24.5376 35.3663 25.4867 37.0103C25.6782 37.342 25.8061 37.6944 25.8735 38.0524L31.8797 34.5848L28.4125 28.5794C28.1749 28.8563 27.8876 29.0979 27.5555 29.2896C25.9115 30.2387 23.7916 29.6177 22.9332 27.8933L22.9332 27.8933C22.1724 26.365 22.7202 24.4814 24.1761 23.5946C24.5277 23.3804 24.9043 23.2391 25.2877 23.1671L23.4231 19.9375C23.216 19.5788 23.3389 19.1201 23.6976 18.913C24.0563 18.7059 24.515 18.8288 24.7221 19.1875L26.6252 22.4837C27.1443 23.3828 26.576 24.4713 25.5982 24.6354"/>
<path fill-rule="evenodd" clip-rule="evenodd" d="M44.7577 30.1465C45.2771 31.0461 44.9375 32.2054 43.9919 32.676C43.1633 33.0884 42.1261 32.7886 41.6431 31.9961C41.5182 31.7912 41.4397 31.574 41.4027 31.3547L41.4027 31.3547C41.2381 30.3769 40.1497 29.8096 39.251 30.3284L33.1785 33.8344L30.771 29.6645C30.5639 29.3058 30.1052 29.1829 29.7465 29.39C29.3877 29.5971 29.2648 30.0558 29.4719 30.4145L32.2544 35.234C32.4615 35.5927 32.9202 35.7156 33.2789 35.5085L39.9346 31.6658C40.0067 32.0489 40.148 32.4253 40.3622 32.7768L40.3622 32.7768C41.2492 34.232 43.1322 34.7794 44.6602 34.0189C46.3848 33.1606 47.0059 31.0405 46.0567 29.3965C45.8652 29.0649 45.624 28.7779 45.3477 28.5406L52.0034 24.6979C52.3621 24.4908 52.485 24.0321 52.2779 23.6734L41.4687 4.95143C41.2616 4.59271 40.8029 4.4698 40.4442 4.67691L33.7222 8.55789C32.8235 9.07673 32.7706 10.3031 33.535 10.9345M33.9704 11.4633C34.4152 12.2779 34.1562 13.326 33.3848 13.8374C32.5044 14.421 31.3306 14.1354 30.8113 13.2359C30.6967 13.0374 30.6246 12.8279 30.591 12.6165C30.4285 11.5957 29.2917 11.1158 28.4418 11.6065L25.145 13.5099C24.7863 13.717 24.6634 14.1757 24.8705 14.5344C25.0776 14.8932 25.5363 15.0161 25.895 14.809L29.1255 12.9438C29.1929 13.3019 29.3207 13.6542 29.5123 13.9859C30.4614 15.6299 32.608 16.152 34.2136 15.0877C35.6362 14.1446 36.1037 12.2402 35.2869 10.7444L35.2868 10.7444C35.0896 10.3831 34.8343 10.0726 34.5385 9.81861L40.5447 6.35094L50.6038 23.7739L44.5314 27.2798C43.6814 27.7705 43.5287 28.9951 44.3315 29.6461L44.3316 29.6461C44.4977 29.7808 44.6431 29.9481 44.7577 30.1465M39.9236 31.6037L39.9816 31.5939L39.9236 31.6037M39.9236 31.6037C39.9235 31.6037 39.9235 31.6037 39.9236 31.6037Z"/>
</symbol>

<symbol viewBox="0 0 22 21" id="resume" xmlns="http://www.w3.org/2000/svg">
<path d="M7.96118 7.08838L12.1543 7.10413M7.93756 13.378L11.0824 13.3898M7.94937 10.2332L14.239 10.2568" stroke-width="1.4" stroke-linecap="round"/>
<path d="M2.04009 7.01398C2.73397 4.10504 5.01584 1.84025 7.92991 1.16824C10.0344 0.682926 12.2227 0.691147 14.3235 1.19226C17.2324 1.88614 19.4972 4.16801 20.1692 7.08209C20.6545 9.18659 20.6463 11.3749 20.1452 13.4757C19.4513 16.3846 17.1695 18.6494 14.2554 19.3214C12.1509 19.8067 9.96261 19.7985 7.86181 19.2974C4.95287 18.6035 2.68808 16.3216 2.01607 13.4076C1.53075 11.3031 1.53897 9.11479 2.04009 7.01398Z" stroke-width="1.4"/>
</symbol>

<symbol viewBox="0 0 9 18" id="slider-arrow" xmlns="http://www.w3.org/2000/svg">
<path d="M7.99984 16.92L1.47984 10.4C0.709844 9.62996 0.709844 8.36996 1.47984 7.59996L7.99984 1.07996" stroke-width="1.5" stroke-miterlimit="10" stroke-linecap="round" stroke-linejoin="round"/>
</symbol>

<symbol viewBox="0 0 45 45" id="statist" xmlns="http://www.w3.org/2000/svg">
<path d="M5.5918 35.501V42.488C5.5918 43.5118 6.42175 44.3418 7.44559 44.3418H13.7482C14.772 44.3418 15.602 43.5118 15.602 42.488V28.4711C15.602 27.4473 14.772 26.6173 13.7482 26.6173H7.44559C6.42175 26.6173 5.5918 27.4473 5.5918 28.4711V36.9003" stroke-width="1.5" stroke-miterlimit="10" stroke-linecap="round" stroke-linejoin="round"/>
<path d="M27.34 20.1887H21.0374C20.0135 20.1887 19.1836 21.0187 19.1836 22.0425V42.488C19.1836 43.5118 20.0135 44.3418 21.0374 44.3418H27.34C28.3639 44.3418 29.1938 43.5118 29.1938 42.488V22.0425C29.1938 21.0187 28.3639 20.1887 27.34 20.1887Z" stroke-width="1.5" stroke-miterlimit="10" stroke-linecap="round" stroke-linejoin="round"/>
<path d="M42.7856 21.1679V15.614C42.7856 14.5902 41.9557 13.7603 40.9318 13.7603H34.6292C33.6053 13.7603 32.7754 14.5902 32.7754 15.614V42.488C32.7754 43.5118 33.6053 44.3418 34.6292 44.3418H40.9318C41.9557 44.3418 42.7856 43.5118 42.7856 42.488V21.1679Z" stroke-width="1.5" stroke-miterlimit="10" stroke-linecap="round" stroke-linejoin="round"/>
<path d="M42.6862 0.669024L36.3192 1.4988L37.8582 3.55729L32.4057 7.634L29.5376 5.10522C29.0485 4.67402 28.3241 4.64493 27.8017 5.03526L15.6073 14.1527L12.7546 12.0156C12.2654 11.6491 11.5933 11.6488 11.1039 12.0148L1.27734 19.3618L2.92714 21.5684L11.9279 14.8388L14.7806 16.9757C15.2697 17.3422 15.9418 17.3425 16.4314 16.9765L28.5552 7.912L31.4231 10.4407C31.9123 10.8721 32.6368 10.9012 33.159 10.5108L39.508 5.76387L41.0485 7.8242L43.6443 1.95021C43.9336 1.29568 43.3958 0.576563 42.6862 0.669024Z" stroke-width="1.5" stroke-miterlimit="10" stroke-linecap="round" stroke-linejoin="round"/>
</symbol>

<symbol viewBox="0 0 25 25" id="video" xmlns="http://www.w3.org/2000/svg">
<path d="M17.13 8.08008C17.13 8.08008 17.16 7.13008 17.13 6.82008C16.96 4.78008 15.63 4.08008 13.02 4.08008H6.71C3.55 4.08008 2.5 5.13008 2.5 8.29008V16.7101C2.5 17.9701 2.88 19.2401 3.87 20.0501L4.5 20.5001" stroke-width="1.5" stroke-linecap="round" stroke-linejoin="round"/>
<path d="M17.2398 11.4502V16.7102C17.2398 19.8702 16.1898 20.9202 13.0298 20.9202H7.75977" stroke-width="1.5" stroke-linecap="round" stroke-linejoin="round"/>
<path d="M22.5002 7.24023V16.3102C22.5002 17.9802 21.3802 18.5602 20.0202 17.6002L17.2402 15.6502" stroke-width="1.5" stroke-linecap="round" stroke-linejoin="round"/>
<path d="M22.52 2.68994L2.52002 22.6899" stroke-width="1.5" stroke-linecap="round" stroke-linejoin="round"/>
</symbol></svg>