<svg width="133" height="32" viewBox="0 0 133 32" fill="none" xmlns="http://www.w3.org/2000/svg">
<g clip-path="url(#clip0_1138_2429)">
<path d="M39.7668 15.3992C39.7668 16.6257 39.5424 17.772 39.0694 18.8381C38.5805 19.9363 37.9552 20.8742 37.1456 21.6998C36.344 22.5014 35.3821 23.1507 34.2839 23.6237C33.2097 24.0966 32.0474 24.3371 30.8209 24.3371H24.873L27.847 21.3391H30.8209C31.6466 21.3391 32.4322 21.1788 33.1456 20.8902C33.859 20.5776 34.5083 20.1527 35.0454 19.5916C35.5825 19.0305 36.0073 18.4052 36.3199 17.6918C36.6326 16.9543 36.7929 16.1928 36.7929 15.3912C36.7929 14.5896 36.6326 13.8281 36.3199 13.0906C36.0073 12.3772 35.5825 11.7519 35.0213 11.1908C34.4843 10.6537 33.835 10.2048 33.1215 9.89221C32.4081 9.60363 31.6225 9.44331 30.8209 9.44331H27.847L24.873 6.44531H30.8209C32.0474 6.44531 33.1937 6.69381 34.2839 7.15874C35.358 7.63168 36.3199 8.27297 37.1215 9.08259C37.9472 9.90824 38.5724 10.8461 39.0694 11.9443C39.5424 13.0345 39.7668 14.1728 39.7668 15.3992Z" fill="black"/>
<path d="M55.3351 6.46094V17.1543L43.4473 6.46094V6.48499V6.50102V10.9739V24.3447H46.4212V13.6513L58.309 24.3447V24.3206V24.2966V19.8236V6.46094H55.3351Z" fill="black"/>
<path d="M67.6853 21.3467L66.1623 24.3447H62.8516L71.7895 6.46094L77.7534 18.3968H74.4027L71.7895 13.1463L69.1522 18.3968L67.6853 21.3467ZM80.7354 24.3447H77.4007L75.9258 21.3707H79.2364L80.7354 24.3447Z" fill="black"/>
<path d="M91.5027 14.2767H93.5869C95.2061 14.2767 96.3043 13.3308 96.3043 11.936C96.3043 10.5653 95.2382 9.6916 93.5709 9.6916C91.9116 9.6916 90.8134 10.6294 90.7172 12.1044H87.4146C87.5348 8.87396 89.9316 6.83789 93.6591 6.83789C97.1621 6.83789 99.6791 8.75372 99.6791 11.4391C99.6791 13.411 98.4366 14.9501 96.5288 15.3429V15.5593C98.8695 15.8158 100.337 17.3789 100.337 19.6314C100.337 22.6214 97.5228 24.7857 93.627 24.7857C89.8194 24.7857 87.2382 22.6775 87.0859 19.4631H90.5087C90.613 20.906 91.8314 21.8198 93.6671 21.8198C95.4546 21.8198 96.6971 20.8178 96.6971 19.3589C96.6971 17.8679 95.5268 16.9461 93.611 16.9461H91.4947V14.2767H91.5027Z" fill="black"/>
<path d="M109.562 6.83008C113.121 6.83008 115.606 8.87417 115.606 11.808C115.606 13.6678 114.604 15.263 111.646 18.0445L108.384 21.1547V21.3712H115.863V24.3371H103.55V21.8441L109.121 16.3932C111.526 14.0525 112.127 13.1628 112.127 12.0485C112.127 10.6778 111.013 9.70784 109.45 9.70784C107.791 9.70784 106.66 10.798 106.66 12.3692V12.4413H103.35V12.3852C103.342 9.08258 105.875 6.83008 109.562 6.83008Z" fill="black"/>
<path d="M119.229 19.4859H122.532C122.732 20.9048 123.991 21.8507 125.61 21.8507C127.446 21.8507 128.712 20.6242 128.712 18.7645C128.712 16.8807 127.438 15.6302 125.626 15.6302C124.304 15.6302 123.294 16.2074 122.7 17.1693H119.51L120.36 7.26953H131.093V10.2354H123.133L122.757 14.6282H122.973C123.694 13.5861 124.905 12.9609 126.596 12.9609C129.835 12.9609 132.135 15.3417 132.135 18.6843C132.135 22.3076 129.522 24.7765 125.602 24.7765C121.867 24.7765 119.334 22.5401 119.229 19.4859Z" fill="black"/>
<path d="M12.4318 13.3064L0.904752 6.70117C0.904752 6.70117 0.479903 8.03183 0.22339 9.02582C-0.265588 10.9417 0.439822 12.2804 1.61818 12.9457L7.37369 16.2002L12.4318 13.3064Z" fill="url(#paint0_linear_1138_2429)"/>
<path d="M16.3364 8.80962L0.953666 0C0.953666 0 0.528816 1.33066 0.272303 2.32465C-0.216675 4.24048 0.488735 5.57916 1.65908 6.24449L17.2743 15.0782C17.2743 15.0782 17.4507 14.3006 17.5789 13.5952C17.9156 11.7435 17.9477 9.90782 16.3364 8.80962Z" fill="url(#paint1_linear_1138_2429)"/>
<path d="M16.3364 8.81084L14.8374 7.95312C14.8294 7.95312 14.8294 7.95312 14.8294 7.96114C14.9496 8.2898 15.4947 9.73268 14.6851 10.8389C14.0037 11.7848 12.7051 12.4982 12.7051 12.4982L17.2743 15.0874C17.2743 15.0874 17.4506 14.3098 17.5789 13.6044C17.9156 11.7447 17.9476 9.90904 16.3364 8.81084Z" fill="url(#paint2_linear_1138_2429)"/>
<path d="M16.9704 22.7966L0.874187 31.999C0.874187 31.999 0.457353 30.6603 0.216872 29.6583C-0.248058 27.7344 0.505451 26.3637 1.73191 25.6663L18.0766 16.4238C18.0766 16.4238 18.245 17.2014 18.3652 17.9228C18.6618 19.7905 18.6698 21.6422 16.9704 22.7966Z" fill="#CD2D3D"/>
<path d="M16.4322 16.3045L0.825025 25.2344C0.825025 25.2344 0.400176 23.9037 0.151679 22.9017C-0.329283 20.9859 0.384143 19.6312 1.57853 18.9658L17.4182 10.0039C17.4182 10.0039 17.5946 10.7815 17.7148 11.4949C18.0435 13.3466 18.0755 15.1823 16.4322 16.3045Z" fill="url(#paint3_linear_1138_2429)"/>
<path d="M16.3199 8.80171C16.3199 8.80171 15.8389 8.52918 15.0533 8.07227C15.3499 8.30473 15.382 8.92197 15.39 9.15443C15.4381 11.0622 13.9872 12.1845 12.384 12.8498L1.58635 18.958C0.391956 19.6314 -0.32147 20.9781 0.159492 22.8939C0.407989 23.8959 0.832838 25.2266 0.832838 25.2266L16.1034 16.4891C17.5623 15.7997 18.5724 14.3087 18.5724 12.5853C18.5724 10.958 17.6585 9.53117 16.3199 8.80171Z" fill="#CD2D3D"/>
<path d="M15.2853 8.20874C15.2853 8.20874 15.1009 8.09651 15.0448 8.06445C15.0448 8.06445 15.5819 9.15463 15.1089 10.341C14.7883 11.1506 13.8584 11.9522 12.7923 12.6175L12.2151 12.9382L1.57783 18.9582C0.383443 19.6315 9.49767 14.5975 12.9206 12.6335C13.9867 12.0243 14.9326 11.2307 15.2773 10.4131C15.8143 9.18669 15.2853 8.20874 15.2853 8.20874Z" fill="url(#paint4_linear_1138_2429)"/>
</g>
<defs>
<linearGradient id="paint0_linear_1138_2429" x1="0.0653154" y1="11.4748" x2="12.4412" y2="11.5329" gradientUnits="userSpaceOnUse">
<stop stop-color="#CE2D3C"/>
<stop offset="1" stop-color="#7E1829"/>
</linearGradient>
<linearGradient id="paint1_linear_1138_2429" x1="0.090516" y1="7.59806" x2="17.7905" y2="7.70607" gradientUnits="userSpaceOnUse">
<stop stop-color="#CE2D3C"/>
<stop offset="1" stop-color="#7E1829"/>
</linearGradient>
<linearGradient id="paint2_linear_1138_2429" x1="12.7097" y1="11.5367" x2="17.7669" y2="11.5675" gradientUnits="userSpaceOnUse">
<stop stop-color="#882635"/>
<stop offset="1" stop-color="#7E1829"/>
</linearGradient>
<linearGradient id="paint3_linear_1138_2429" x1="0.00176327" y1="17.6167" x2="17.8963" y2="17.6167" gradientUnits="userSpaceOnUse">
<stop stop-color="#CE2D3C"/>
<stop offset="1" stop-color="#E5384A"/>
</linearGradient>
<linearGradient id="paint4_linear_1138_2429" x1="1.47352" y1="13.5466" x2="15.5195" y2="13.5466" gradientUnits="userSpaceOnUse">
<stop stop-color="#CE2D3C"/>
<stop offset="1" stop-color="#E95256"/>
</linearGradient>
<clipPath id="clip0_1138_2429">
<rect width="133" height="32" fill="white"/>
</clipPath>
</defs>
</svg>
