<svg width="63" height="63" viewBox="0 0 63 63" fill="none" xmlns="http://www.w3.org/2000/svg">
<g clip-path="url(#clip0_1138_4654)">
<mask id="mask0_1138_4654" style="mask-type:luminance" maskUnits="userSpaceOnUse" x="0" y="0" width="63" height="63">
<path d="M0.763674 23.2632L39.7348 0.763238L62.2348 39.7344L23.2637 62.2344L0.763674 23.2632Z" fill="white"/>
</mask>
<g mask="url(#mask0_1138_4654)">
<path fill-rule="evenodd" clip-rule="evenodd" d="M17.5303 52.0448C17.7374 52.4035 18.1961 52.5264 18.5548 52.3193L25.2769 48.4383C26.1757 47.9194 26.2283 46.693 25.4639 46.0617L25.4639 46.0616C25.2925 45.9201 25.1436 45.7435 25.0286 45.5329C24.5838 44.7183 24.8428 43.6701 25.6142 43.1587C26.4945 42.5752 27.6683 42.8607 28.1877 43.7603C28.3023 43.9588 28.3744 44.1683 28.4081 44.3797C28.5704 45.4004 29.7073 45.8804 30.5572 45.3897L37.2792 41.5088C37.6379 41.3017 37.7608 40.843 37.5537 40.4843L33.6734 33.7633C33.1825 32.913 31.9574 32.7604 31.3064 33.5638L31.3064 33.5639C31.1716 33.7303 31.0042 33.8758 30.8055 33.9906C29.906 34.5099 28.7467 34.1704 28.276 33.2249C27.8635 32.3962 28.1636 31.3586 28.9564 30.8757C29.1614 30.7508 29.3788 30.6722 29.5981 30.6354M18.4543 50.6453L8.39517 33.2224L14.4676 29.7164C15.3176 29.2257 15.4703 28.0012 14.6675 27.3502C14.5013 27.2154 14.3559 27.0481 14.2413 26.8496C13.7219 25.9501 14.0615 24.7908 15.007 24.3202C15.8357 23.9078 16.8729 24.2076 17.3559 25.0001C17.4808 25.2049 17.5594 25.4223 17.5963 25.6416C17.7608 26.6192 18.8493 27.1866 19.748 26.6678L23.0449 24.7643C23.4036 24.5572 23.5265 24.0985 23.3194 23.7398C23.1123 23.3811 22.6536 23.2582 22.2949 23.4653L19.0644 25.3304C18.9923 24.9473 18.851 24.5709 18.6368 24.2195C17.7498 22.7642 15.8669 22.2169 14.3388 22.9772L14.3387 22.9773C12.6141 23.8356 11.9931 25.9557 12.9422 27.5996C13.1337 27.9313 13.375 28.2183 13.6513 28.4557L6.99565 32.2983C6.63693 32.5054 6.51403 32.9641 6.72113 33.3228L17.5303 52.0448M18.4543 50.6453L24.4605 47.1776C24.1647 46.9237 23.9094 46.613 23.7122 46.2518L23.7121 46.2518C22.8954 44.7561 23.3627 42.8516 24.7854 41.9085C26.391 40.8441 28.5376 41.3663 29.4867 43.0103C29.6782 43.342 29.8061 43.6944 29.8735 44.0524L35.8797 40.5848L32.4125 34.5794C32.1749 34.8563 31.8876 35.0979 31.5555 35.2896C29.9115 36.2387 27.7916 35.6177 26.9332 33.8933L26.9332 33.8933C26.1724 32.365 26.7202 30.4814 28.1761 29.5946C28.5277 29.3804 28.9043 29.2391 29.2877 29.1671L27.4231 25.9375C27.216 25.5788 27.3389 25.1201 27.6976 24.913C28.0563 24.7059 28.515 24.8288 28.7221 25.1875L30.6252 28.4837C31.1443 29.3828 30.576 30.4713 29.5982 30.6354" fill="white"/>
<path fill-rule="evenodd" clip-rule="evenodd" d="M48.7577 36.1465C49.2771 37.0461 48.9375 38.2054 47.9919 38.676C47.1633 39.0884 46.1261 38.7886 45.6431 37.9961C45.5182 37.7912 45.4397 37.574 45.4027 37.3547L45.4027 37.3547C45.2381 36.3769 44.1497 35.8096 43.251 36.3284L37.1785 39.8344L34.771 35.6645C34.5639 35.3058 34.1052 35.1829 33.7465 35.39C33.3877 35.5971 33.2648 36.0558 33.4719 36.4145L36.2544 41.234C36.4615 41.5927 36.9202 41.7156 37.2789 41.5085L43.9346 37.6658C44.0067 38.0489 44.148 38.4253 44.3622 38.7768L44.3622 38.7768C45.2492 40.232 47.1322 40.7794 48.6602 40.0189C50.3848 39.1606 51.0059 37.0405 50.0567 35.3965C49.8652 35.0649 49.624 34.7779 49.3477 34.5406L56.0034 30.6979C56.3621 30.4908 56.485 30.0321 56.2779 29.6734L45.4687 10.9514C45.2616 10.5927 44.8029 10.4698 44.4442 10.6769L37.7222 14.5579C36.8235 15.0767 36.7706 16.3031 37.535 16.9345M37.9704 17.4633C38.4152 18.2779 38.1562 19.326 37.3848 19.8374C36.5044 20.421 35.3306 20.1354 34.8113 19.2359C34.6967 19.0374 34.6246 18.8279 34.591 18.6165C34.4285 17.5957 33.2917 17.1158 32.4418 17.6065L29.145 19.5099C28.7863 19.717 28.6634 20.1757 28.8705 20.5344C29.0776 20.8932 29.5363 21.0161 29.895 20.809L33.1255 18.9438C33.1929 19.3019 33.3207 19.6542 33.5123 19.9859C34.4614 21.6299 36.608 22.152 38.2136 21.0877C39.6362 20.1446 40.1037 18.2402 39.2869 16.7444L39.2868 16.7444C39.0896 16.3831 38.8343 16.0726 38.5385 15.8186L44.5447 12.3509L54.6038 29.7739L48.5314 33.2798C47.6814 33.7705 47.5287 34.9951 48.3315 35.6461L48.3316 35.6461C48.4977 35.7808 48.6431 35.9481 48.7577 36.1465M43.9236 37.6037L43.9816 37.5939L43.9236 37.6037M43.9236 37.6037C43.9235 37.6037 43.9235 37.6037 43.9236 37.6037Z" fill="white"/>
</g>
</g>
<defs>
<clipPath id="clip0_1138_4654">
<rect width="45" height="45" fill="white" transform="translate(0.763672 23.2637) rotate(-30)"/>
</clipPath>
</defs>
</svg>
